# xmcd CD database file
#
# Track frame offsets:
#	150
#	1295
#	20092
#	29105
#	45172
#	72690
#	95097
#	110330
#	130152
#	147250
#	167035
#	184307
#	200482
#
# Disc length: 2971 seconds
#
# Revision: 0
# Processed by: cddbd v1.5.1PL0 Copyright (c) Steve Scherf et al.
# Submitted via: CDex 1.51
#
DISCID=bd0b990d
DTITLE=Various Artist - contemode V.A. 2
DYEAR=2004
DGENRE=JPop
TTITLE0=/interlude
TTITLE1=capsule/tokyo smiling
TTITLE2=Plus-Tech Squeeze Box/kitchen shock→
TTITLE3=KOFTA/farewell
TTITLE4=Spaghetti Vabune!/favorite song(contemode bossa mix)
TTITLE5=Sindbad/A.W.O.L
TTITLE6=NAGISA COSMETIC/Cosmetic Happy
TTITLE7=吉田哲人&ラブ・サウンズ/キーファー・サザーランドみたいな奴
TTITLE8=dahlia/水色ジーナ
TTITLE9=ether22/SKYWALKER
TTITLE10=Hazel Nuts Chocolate/Future☆Popp
TTITLE11=COPTER4016882/Polly's Flying Hat
TTITLE12=capsule/world fabrication
EXTD=YEAR: 2004
EXTT0=
EXTT1=
EXTT2=
EXTT3=
EXTT4=
EXTT5=
EXTT6=
EXTT7=
EXTT8=
EXTT9=
EXTT10=
EXTT11=
EXTT12=
PLAYORDER=
